<?xml version="1.0" standalone="no"?>
<!DOCTYPE svg PUBLIC "-//W3C//DTD SVG 20010904//EN"
 "http://www.w3.org/TR/2001/REC-SVG-20010904/DTD/svg10.dtd">
<svg version="1.0" xmlns="http://www.w3.org/2000/svg"
 width="2010.000000pt" height="2010.000000pt" viewBox="0 0 2010.000000 2010.000000"
 preserveAspectRatio="xMidYMid meet">
<metadata>
Created by potrace 1.14, written by Peter Selinger 2001-2017
</metadata>
<g transform="translate(0.000000,2010.000000) scale(0.100000,-0.100000)"
fill="#000000" stroke="none">
<path d="M9658 18105 c-2 -2 -60 -6 -128 -9 -69 -4 -147 -8 -175 -11 -27 -3
-77 -7 -110 -10 -33 -3 -80 -7 -105 -10 -25 -2 -70 -7 -100 -10 -49 -5 -74 -8
-160 -20 -14 -2 -63 -9 -110 -15 -47 -6 -96 -13 -110 -16 -42 -7 -83 -14 -115
-19 -16 -2 -55 -9 -85 -15 -30 -6 -66 -13 -80 -15 -14 -2 -50 -9 -80 -15 -30
-6 -66 -13 -80 -16 -127 -23 -489 -113 -675 -168 -5 -1 -30 -8 -55 -15 -25 -7
-63 -19 -85 -27 -22 -9 -40 -15 -40 -13 0 11 -694 -240 -773 -280 -9 -5 -39
-18 -67 -29 -55 -23 -151 -66 -260 -115 -155 -71 -584 -292 -637 -329 -14 -10
-29 -18 -32 -18 -3 0 -58 -31 -122 -70 -64 -38 -120 -70 -124 -70 -4 0 -15 -9
-25 -20 -10 -11 -21 -17 -25 -15 -5 3 -10 2 -12 -2 -4 -10 -137 -97 -160 -106
-10 -3 -18 -11 -18 -17 0 -5 -5 -10 -11 -10 -9 0 -255 -164 -269 -180 -3 -3
-22 -16 -42 -30 -21 -14 -38 -28 -38 -32 0 -5 -6 -8 -13 -8 -8 0 -24 -11 -37
-25 -13 -14 -29 -25 -37 -25 -7 0 -13 -3 -13 -7 0 -5 -16 -19 -35 -32 -19 -13
-43 -31 -53 -40 -11 -9 -34 -27 -52 -41 -18 -14 -38 -29 -44 -35 -6 -5 -34
-28 -61 -50 -28 -22 -51 -43 -53 -47 -2 -5 -8 -8 -13 -8 -5 0 -17 -8 -27 -17
-10 -10 -42 -38 -71 -63 -29 -25 -68 -58 -86 -75 -18 -16 -44 -39 -58 -50
-120 -96 -555 -529 -732 -729 -38 -43 -135 -155 -151 -175 -10 -13 -24 -29
-30 -35 -17 -18 -161 -196 -215 -266 -114 -147 -139 -180 -139 -185 0 -4 -6
-13 -12 -20 -33 -37 -75 -95 -165 -229 -29 -45 -60 -90 -69 -101 -8 -11 -31
-45 -49 -75 -19 -30 -39 -60 -45 -67 -5 -7 -10 -17 -10 -23 0 -5 -4 -10 -10
-10 -5 0 -10 -4 -10 -9 0 -5 -21 -43 -48 -85 -26 -42 -51 -84 -57 -94 -25 -44
-82 -140 -98 -167 -10 -16 -23 -42 -30 -57 -6 -16 -15 -28 -19 -28 -4 0 -8 -8
-8 -18 0 -10 -9 -28 -20 -40 -11 -12 -20 -27 -20 -35 0 -8 -8 -25 -18 -38 -10
-13 -58 -105 -106 -204 -49 -99 -92 -187 -97 -195 -5 -8 -12 -22 -16 -30 -16
-40 -117 -269 -129 -295 -77 -170 -281 -739 -335 -935 -17 -61 -16 -58 -34
-120 -9 -30 -17 -62 -20 -70 -2 -8 -13 -51 -25 -95 -12 -44 -23 -87 -25 -96
-2 -8 -10 -44 -19 -80 -8 -35 -18 -75 -20 -89 -3 -14 -10 -43 -15 -65 -14 -56
-18 -79 -56 -275 -13 -69 -27 -145 -31 -170 -3 -25 -8 -54 -10 -65 -5 -26 -11
-60 -19 -115 -4 -25 -8 -56 -10 -70 -2 -14 -6 -47 -10 -75 -3 -27 -7 -59 -9
-71 -2 -12 -7 -57 -11 -100 -4 -43 -9 -87 -11 -96 -1 -9 -6 -57 -9 -105 -4
-48 -8 -104 -10 -123 -28 -271 -28 -989 0 -1340 11 -140 16 -198 20 -225 2
-16 7 -57 10 -90 7 -74 7 -68 40 -315 3 -19 7 -46 10 -60 2 -13 7 -42 10 -65
3 -22 10 -62 15 -90 5 -27 12 -65 15 -84 3 -19 19 -100 36 -180 40 -197 39
-191 49 -231 5 -19 11 -46 14 -60 2 -14 23 -95 45 -180 52 -196 49 -184 51
-190 1 -3 3 -9 4 -15 1 -5 5 -17 9 -25 5 -13 25 -84 33 -115 9 -40 142 -438
164 -490 4 -11 41 -103 81 -205 120 -306 307 -708 443 -955 114 -206 127 -229
138 -242 6 -7 7 -13 2 -13 -5 0 -4 -4 2 -8 10 -7 107 -163 132 -213 7 -15 22
-36 33 -48 11 -11 17 -21 14 -21 -3 0 5 -15 19 -33 15 -19 26 -39 26 -45 0 -7
4 -12 8 -12 5 0 19 -19 32 -42 13 -24 26 -45 30 -48 3 -3 22 -30 42 -60 64
-96 136 -198 201 -284 12 -16 48 -63 79 -105 31 -42 66 -86 78 -98 11 -13 17
-23 13 -23 -4 0 3 -7 15 -16 12 -8 22 -19 22 -25 0 -5 8 -17 18 -27 9 -10 35
-40 57 -66 22 -27 46 -54 53 -62 6 -7 12 -15 12 -18 0 -3 12 -18 27 -35 16
-16 46 -50 68 -75 125 -145 272 -302 448 -478 93 -92 170 -168 172 -168 3 0
24 -19 48 -43 59 -57 161 -149 277 -247 14 -12 45 -39 70 -60 54 -46 217 -177
256 -205 15 -11 32 -25 38 -30 26 -25 397 -290 477 -340 9 -5 49 -32 90 -59
134 -88 173 -113 249 -157 41 -24 77 -46 80 -49 3 -3 14 -10 25 -16 11 -6 43
-24 70 -39 28 -16 68 -38 90 -50 22 -12 58 -33 80 -45 179 -104 709 -353 945
-444 52 -21 104 -41 115 -46 11 -5 47 -19 80 -30 33 -12 69 -25 80 -30 28 -12
167 -61 185 -65 8 -2 40 -12 70 -23 55 -20 243 -79 277 -87 10 -2 74 -20 143
-40 69 -20 132 -37 140 -39 8 -2 22 -6 30 -9 15 -6 123 -28 137 -29 5 0 14 -4
21 -10 6 -6 12 -8 12 -5 0 3 17 1 38 -4 20 -5 48 -12 62 -15 14 -3 32 -7 40
-9 8 -2 29 -7 45 -10 17 -2 41 -7 55 -10 90 -20 145 -31 228 -45 65 -11 106
-18 142 -24 22 -4 186 -29 275 -41 30 -4 88 -11 168 -19 23 -3 69 -8 102 -11
33 -4 83 -9 110 -11 28 -2 77 -6 110 -9 187 -15 316 -19 650 -20 318 0 474 5
695 20 72 5 192 15 230 20 19 2 60 7 90 10 30 3 66 8 80 10 14 2 50 7 80 10
30 4 82 10 115 15 33 5 78 12 100 15 66 10 93 15 235 41 74 14 146 27 160 29
14 2 63 12 110 23 71 17 108 25 170 37 3 1 14 4 25 8 11 3 31 8 45 11 37 7
263 66 280 73 8 3 24 8 34 10 29 5 181 51 266 80 41 14 82 26 90 28 23 5 240
80 282 98 20 8 39 13 42 9 3 -3 6 0 6 6 0 7 3 11 8 10 8 -3 16 0 192 70 154
62 170 68 248 104 34 15 64 28 66 28 6 0 140 62 253 117 51 24 94 43 96 41 2
-2 11 3 19 10 23 18 108 62 108 55 0 -3 8 1 18 9 9 8 40 26 67 40 56 28 98 51
105 58 3 3 39 23 80 44 41 22 99 54 128 73 28 18 52 30 52 27 0 -2 6 0 13 6
16 14 228 148 247 157 8 3 36 21 63 40 26 18 51 33 56 33 5 0 11 3 13 8 2 4
23 20 48 37 25 16 47 32 50 35 3 3 17 11 33 19 15 8 27 18 27 23 0 4 7 8 15 8
9 0 18 7 21 15 4 8 12 15 20 15 8 0 14 5 14 10 0 6 4 10 10 10 15 0 348 251
495 374 56 47 182 154 207 176 189 168 273 247 427 400 162 162 301 310 301
321 0 5 7 9 15 9 8 0 15 4 15 10 0 5 12 22 28 38 15 15 47 52 72 82 25 29 50
58 55 64 11 11 167 199 188 226 7 8 28 35 47 60 19 25 38 47 42 48 5 2 8 8 8
13 0 5 7 17 15 26 20 23 96 121 115 150 8 11 52 74 98 138 45 64 82 120 82
125 0 4 4 10 8 12 11 4 112 155 112 167 0 5 4 11 8 13 8 3 136 208 180 288 13
25 30 52 36 60 6 8 21 33 33 55 11 22 31 58 44 80 58 103 96 174 113 213 11
23 23 42 28 42 4 0 8 5 8 11 0 6 29 70 64 142 105 216 165 347 159 347 -3 0
-1 6 5 13 5 6 26 53 47 102 38 93 53 129 75 180 7 17 14 35 16 40 1 6 12 35
24 65 86 213 270 789 304 952 3 12 17 68 31 123 14 55 28 114 31 130 3 17 9
48 15 70 5 22 12 49 14 60 10 39 64 331 76 400 16 101 16 105 23 155 3 25 8
54 10 65 2 12 7 48 11 80 4 33 8 69 10 81 2 11 6 52 10 90 4 38 9 76 10 85 2
9 6 59 10 110 4 52 8 110 10 129 13 133 19 334 20 650 0 379 -7 560 -30 800
-3 30 -7 82 -10 115 -3 33 -8 78 -11 100 -2 22 -7 60 -10 85 -3 25 -7 56 -9
70 -2 14 -7 48 -10 76 -3 28 -8 61 -10 75 -3 13 -8 42 -10 64 -3 22 -7 47 -9
55 -1 8 -6 38 -10 65 -4 28 -12 66 -16 85 -5 19 -11 51 -14 70 -3 19 -10 60
-16 90 -6 30 -13 66 -15 80 -6 29 -7 36 -35 155 -11 50 -23 101 -26 115 -3 14
-21 84 -40 155 -19 72 -36 137 -38 145 -2 8 -10 35 -17 60 -7 25 -13 50 -15
55 -17 74 -154 487 -165 500 -5 5 -9 15 -9 23 0 21 -133 366 -180 469 -11 24
-20 45 -20 48 0 4 -13 33 -75 170 -49 109 -234 478 -279 558 -30 54 -53 97
-50 97 3 0 -2 7 -10 16 -9 8 -16 21 -16 29 0 7 -4 15 -8 17 -4 2 -25 35 -47
73 -21 39 -57 100 -81 137 -23 36 -40 69 -37 72 4 3 2 6 -3 6 -6 0 -26 27 -45
60 -18 33 -37 60 -41 60 -5 0 -8 4 -8 9 0 13 -121 195 -132 199 -4 2 -8 8 -8
14 0 6 -13 27 -30 48 -16 21 -30 43 -30 49 0 6 -4 11 -10 11 -5 0 -10 6 -10
13 0 7 -9 19 -20 27 -11 8 -20 20 -20 27 0 7 -4 13 -10 13 -5 0 -10 6 -10 14
0 8 -4 16 -8 18 -5 2 -22 23 -39 48 -17 25 -41 55 -52 68 -12 12 -18 22 -14
22 4 0 3 4 -2 8 -6 4 -64 73 -128 155 -65 81 -126 156 -137 167 -11 11 -20 22
-20 25 0 3 -10 16 -22 29 -13 12 -43 46 -68 76 -56 67 -131 149 -192 212 -25
26 -45 48 -43 48 6 0 -337 340 -436 431 -121 113 -139 129 -209 188 -29 25
-58 50 -64 56 -6 6 -49 42 -96 79 -47 38 -92 75 -100 83 -8 7 -53 43 -100 79
-47 36 -92 71 -100 77 -8 7 -31 23 -50 37 -19 13 -40 29 -46 35 -6 5 -22 17
-34 25 -12 8 -28 21 -36 28 -7 6 -15 12 -19 12 -8 0 -83 54 -119 85 -6 6 -23
16 -38 24 -16 8 -28 18 -28 23 0 4 -4 8 -10 8 -11 0 -133 82 -138 93 -2 4 -10
7 -17 7 -8 0 -26 11 -41 25 -15 14 -32 25 -37 25 -6 0 -18 6 -26 14 -9 8 -32
23 -51 34 -19 11 -88 52 -153 91 -65 39 -120 71 -122 71 -2 0 -28 14 -57 31
-166 99 -679 356 -700 351 -3 -1 -12 5 -18 13 -7 8 -18 15 -26 15 -7 0 -41 13
-76 29 -35 16 -88 39 -118 51 -30 12 -68 27 -85 34 -64 28 -94 39 -210 83
-122 46 -484 170 -520 178 -11 3 -56 16 -100 29 -232 72 -711 186 -925 221
-19 3 -46 7 -60 10 -14 3 -41 7 -60 10 -19 3 -42 8 -50 10 -8 2 -38 7 -66 10
-28 3 -61 8 -74 10 -37 7 -201 28 -305 40 -27 3 -68 7 -90 10 -46 6 -110 12
-240 20 -49 4 -115 9 -145 11 -64 6 -887 14 -892 9z"/>
</g>
</svg>
